<svg width="1556" height="777" viewBox="0 0 1556 777" fill="none" xmlns="http://www.w3.org/2000/svg">
<mask id="mask0" mask-type="alpha" maskUnits="userSpaceOnUse" x="0" y="-210" width="1557" height="1279">
<path d="M298.092 922.469L0 1069V-210H1556.32V784.819L298.092 922.469Z" fill="#EEF5FB"/>
</mask>
<g mask="url(#mask0)">
<path d="M1308.5 998L986.362 -217L453 1251L1308.5 998Z" fill="url(#paint0_linear)"/>
<path d="M-62.7513 691.954L1214.29 -57.6912L634.129 -1046L-238.998 407.937L-62.7513 691.954Z" fill="url(#paint1_linear)"/>
<path d="M381.998 121.41L1375 -243L2013.5 907.91L381.998 121.41Z" fill="url(#paint2_linear)"/>
<path d="M378.116 1731.96L1347.36 -296L255.115 176.958L378.116 1731.96Z" fill="url(#paint3_linear)"/>
<path d="M1960.4 1537.35L-448.763 -325L176.696 1334.96L1960.4 1537.35Z" fill="url(#paint4_linear)"/>
<path d="M405 -74L771.656 1588.61L1567.5 1079.5L557 -74L405 -74Z" fill="url(#paint5_linear)"/>
<path d="M1917.19 1478.6L2563.62 -45.4443L983.476 -84.9737L1409.82 1445.07L1917.19 1478.6Z" fill="url(#paint6_linear)"/>
<path d="M1050.28 920.111L-33.7598 42.0001L-205.535 716.624L993.999 1164.5L1050.28 920.111Z" fill="url(#paint7_linear)"/>
</g>
<defs>
<linearGradient id="paint0_linear" x1="1422.43" y1="1144.8" x2="291.691" y2="-781.434" gradientUnits="userSpaceOnUse">
<stop stop-color="#EEF5FB"/>
<stop offset="1" stop-color="#EEF5FB" stop-opacity="0"/>
</linearGradient>
<linearGradient id="paint1_linear" x1="767.426" y1="-294.201" x2="187.269" y2="-1282.51" gradientUnits="userSpaceOnUse">
<stop stop-color="#EEF5FB"/>
<stop offset="1" stop-color="#EEF5FB" stop-opacity="0"/>
</linearGradient>
<linearGradient id="paint2_linear" x1="1644.59" y1="371.445" x2="832.98" y2="1754.04" gradientUnits="userSpaceOnUse">
<stop stop-color="#EEF5FB"/>
<stop offset="1" stop-color="#EEF5FB" stop-opacity="0"/>
</linearGradient>
<linearGradient id="paint3_linear" x1="294.636" y1="-81.4904" x2="446.296" y2="662.797" gradientUnits="userSpaceOnUse">
<stop stop-color="#EEF5FB"/>
<stop offset="1" stop-color="#EEF5FB" stop-opacity="0"/>
</linearGradient>
<linearGradient id="paint4_linear" x1="1829.05" y1="233.311" x2="816.434" y2="2048.47" gradientUnits="userSpaceOnUse">
<stop stop-color="#EEF5FB"/>
<stop offset="0.0001" stop-color="#FDFEFF"/>
<stop offset="1" stop-color="#EEF5FB" stop-opacity="0"/>
</linearGradient>
<linearGradient id="paint5_linear" x1="468.828" y1="839.611" x2="1251.92" y2="523.001" gradientUnits="userSpaceOnUse">
<stop stop-color="#EEF5FB"/>
<stop offset="0.0001" stop-color="#FDFEFF"/>
<stop offset="1" stop-color="#EEF5FB" stop-opacity="0"/>
</linearGradient>
<linearGradient id="paint6_linear" x1="2530.24" y1="729.072" x2="951.318" y2="661.008" gradientUnits="userSpaceOnUse">
<stop stop-color="#EEF5FB"/>
<stop offset="0.0001" stop-color="#FDFEFF"/>
<stop offset="1" stop-color="#EEF5FB" stop-opacity="0"/>
</linearGradient>
<linearGradient id="paint7_linear" x1="104.37" y1="441.827" x2="810.013" y2="411.916" gradientUnits="userSpaceOnUse">
<stop stop-color="white"/>
<stop offset="1" stop-color="white" stop-opacity="0.49"/>
</linearGradient>
</defs>
</svg>
