<svg width="1556" height="777" viewBox="0 0 1556 777" fill="none" xmlns="http://www.w3.org/2000/svg">
<g clip-path="url(#clip0)">
<mask id="mask0" mask-type="alpha" maskUnits="userSpaceOnUse" x="0" y="-214" width="1557" height="1280">
<path d="M298.092 919.454L0 1065.99V-213.014H1556.32V781.805L298.092 919.454Z" fill="#EEF5FB"/>
</mask>
<g mask="url(#mask0)">
<path d="M1612.23 0.506484L670.5 1410.5L948.266 -595.343L1612.23 0.506484Z" fill="#EEF5FB" fill-opacity="0.67"/>
<path d="M-71.1595 649.94L1786.59 -538.514L625.721 -1088.01L-247.407 365.923L-71.1595 649.94Z" fill="#EEF5FB" fill-opacity="0.7"/>
<path d="M373.593 118.396L1246.59 -531.514L2005.09 904.896L373.593 118.396Z" fill="#EEF5FB" fill-opacity="0.53"/>
<path opacity="0.75" d="M728.5 956L2470 -633L1071.89 -525.042L393.5 1015.5L728.5 956Z" fill="white"/>
<path d="M2076.37 1101.61L-774.724 32.1596L312.252 1434L2076.37 1101.61Z" fill="#EEF5FB" fill-opacity="0.35"/>
<path d="M-138.338 -1370.84L1078.28 1420.63L-378.315 408.203L-138.338 -1370.84Z" fill="white" fill-opacity="0.35"/>
<path d="M167.998 -321.295L636.889 1594.18L1548.52 1050.33L449.827 -321.295L167.998 -321.295Z" fill="#EEF5FB" fill-opacity="0.5"/>
<path d="M1625.59 1219.37L2702.11 -38.2949L1207.68 -553.183L1152.04 1034.18L1625.59 1219.37Z" fill="#EEF5FB" fill-opacity="0.3"/>
<path opacity="0.4" d="M879.816 1007.11L-204.229 129L-376.004 803.624L823.53 1251.5L879.816 1007.11Z" fill="white" fill-opacity="0.7"/>
<path d="M962.299 898.736L1494.1 -391L1967.71 119.218L1128.65 1086.41L962.299 898.736Z" fill="white" fill-opacity="0.3"/>
<path d="M-214.203 660.806L869.842 1538.92L1041.62 864.292L-157.917 416.416L-214.203 660.806Z" fill="white" fill-opacity="0.5"/>
<rect x="673.547" y="-631" width="616" height="1116.59" transform="rotate(75 673.547 -631)" fill="white"/>
<rect x="1846" y="426.564" width="616" height="1116.59" transform="rotate(60 1846 426.564)" fill="white"/>
</g>
</g>
<defs>
<clipPath id="clip0">
<rect width="1556" height="777" fill="white"/>
</clipPath>
</defs>
</svg>
