<svg width="1532" height="673" viewBox="0 0 1532 673" fill="none" xmlns="http://www.w3.org/2000/svg">
<g clip-path="url(#clip0)">
<rect width="1532" height="673" fill="white"/>
<path d="M1264.64 768.557L942.499 -446.443L179.999 -426.499L671.498 1012.5L1264.64 768.557Z" fill="#EEF5FB" fill-opacity="0.5"/>
<path d="M316.998 46.9528L690.5 -344.636L1573.5 -10.0472L1948.5 833.453L316.998 46.9528Z" fill="#EEF5FB" fill-opacity="0.5"/>
<path opacity="0.6" d="M539.116 1554.96L1508.36 -473L295 -118L539.116 1554.96Z" fill="white" fill-opacity="0.5"/>
<path d="M1293.34 1834.42L125.853 -977.946L-154.834 773.59L1293.34 1834.42Z" fill="#EEF5FB" fill-opacity="0.5"/>
<path opacity="0.5" d="M1521.94 1236.43L2843.61 239.54L1494.77 -584.515L1099.26 953.79L1521.94 1236.43Z" fill="white"/>
<path d="M49 1350.5L-104.791 -303.349L297.946 784.817L49 1350.5Z" fill="#EEF5FB" fill-opacity="0.5"/>
<path opacity="0.75" d="M915.807 1318.4L-732 1477.53L-295.378 -41.6077L1036.13 824.363L915.807 1318.4Z" fill="white"/>
<path opacity="0.95" d="M602.827 1180.48L-57.553 241L-524.562 1011.14L463.688 1430.27L602.827 1180.48Z" fill="white"/>
<path opacity="0.5" d="M-130.396 594.354L655.241 -243.199L-193.742 -543.921L-403.252 508.892L-130.396 594.354Z" fill="white"/>
</g>
<defs>
<clipPath id="clip0">
<rect width="1532" height="673" fill="white"/>
</clipPath>
</defs>
</svg>
